# xmcd
#
# Track frame offsets:
#	150
#	13953
#	26124
#	39950
#	49768
#	61280
#	71618
#	95109
#	115294
#	121626
#	130212
#	145559
#	166074
#	199998
#	200669
#	214470
#	229229
#	241230
#	263675
#	281054
#	304307
#	323803
#	340433
#
# Disc length: 4754 seconds
#
# Revision: 1
# Processed by: cddbd v1.5.1PL0 Copyright (c) Steve Scherf et al.
# Submitted via: audiograbber 1.83.01
#
DISCID=60129017
DTITLE=Country Mix - Franzl´s Geburtstags CD von Gero
DYEAR=2002
DGENRE=Country
TTITLE0=EARL SCRUGGS - DUELING BANJOS
TTITLE1=EARL SCRUGGS - BLACK MOUNTAIN BLUES
TTITLE2=EARL SCRUGGS - STORY OF BONNIE and CLYDE
TTITLE3=EARL SCRUGGS - FOGGY MOUNTAIN BREAKDOWN
TTITLE4=EARL SCRUGGS - BANJO MAN
TTITLE5=EARL SCRUGGS - SWIMMING SONG
TTITLE6=ARLO GUTHRIE - GATES OF EDEN
TTITLE7=ARLO GUTHRIE - THE CITY OF NEW ORLEANS
TTITLE8=HOYT AXTON - PENNY WHISTLE SONG
TTITLE9=HOYT AXTON - THE DEVIL
TTITLE10=STEVE YOUNG - SEVEN BRIDGES ROAD
TTITLE11=WARREN ZEVON - FRANK and JESSE JAMES
TTITLE12=DAVID BROMBERG - MR BOJANGLES
TTITLE13=No - NO SONG
TTITLE14=OUTLAWS - THERE GOES ANOTHER LOVESONG
TTITLE15=BEAU BRUMMELS - GOLD RUSH
TTITLE16=NEW RIDERS OF THE PURPLE SAGE - HENRY
TTITLE17=RUSTY WIER - BLACK HAT SALOON
TTITLE18=NITTY GRITTY DIRT BAND - DREAM
TTITLE19=POINT BLANK - DISTANCE
TTITLE20=TOM RUSH - INDIAN WOMAN FROM WITCHITA
TTITLE21=JOHN STEWART - FIRE IN THE WIND
TTITLE22=TOM RUSH - DESPERADOS WAITING FOR THE TRAIN
EXTD=
EXTT0=
EXTT1=
EXTT2=
EXTT3=
EXTT4=
EXTT5=
EXTT6=
EXTT7=
EXTT8=
EXTT9=
EXTT10=
EXTT11=
EXTT12=
EXTT13=
EXTT14=
EXTT15=
EXTT16=
EXTT17=
EXTT18=
EXTT19=
EXTT20=
EXTT21=
EXTT22=
PLAYORDER=
